# xmcd
#
# Track frame offsets: 
#        150
#        9817
#        20880
#        34397
#        47420
#        67040
#        79505
#        95382
#        105110
#        118142
#        135455
#
# Disc length: 2034 seconds
#
# Revision: 0
# Processed by: cddbd v1.5.2PL0 Copyright (c) Steve Scherf et al.
# Submitted via: ExactAudioCopyFreeDBPlugin 1.0
#
DISCID=8007f00b
DTITLE=Gary Green - Surrounded
DYEAR=1997
DGENRE=Blues
TTITLE0=Cat And Mockingbird
TTITLE1=Scoobie
TTITLE2=Little Blue
TTITLE3=Once Upon A Time
TTITLE4=Blues After Hours
TTITLE5=What Do I Have To Do
TTITLE6=Tide By Tide
TTITLE7=Man Overboard
TTITLE8=Diamond Joe
TTITLE9=Decadel
TTITLE10=Somewhere Between The Sun And The Moon
EXTD=
EXTT0=
EXTT1=
EXTT2=
EXTT3=
EXTT4=
EXTT5=
EXTT6=
EXTT7=
EXTT8=
EXTT9=
EXTT10=
PLAYORDER=
